# xmcd
#
# Track frame offsets:
#	150
#	20962
#	40634
#	59427
#	78215
#	102989
#	125188
#	142284
#	158519
#	172188
#	186260
#	211280
#	229161
#	245200
#	264028
#	287501
#	307172
#	320564
#
# Disc length: 4431 seconds
#
# Revision: 0
# Processed by: cddbd v1.5.2PL0 Copyright (c) Steve Scherf et al.
# Submitted via: EasyCDDAExtractor 10.0.1.1
#
DISCID=10114d12
DTITLE=Various Artist - Battle Of The DJ's Match 2 [CD1)
DYEAR=2004
DGENRE=Eurodance
TTITLE0=Citadel Of Kaos and Justin Time - Rock The Disco
TTITLE1=Sunset Regime - Fire This Time
TTITLE2=DJ Seduction - Samplemainia RMX
TTITLE3=JDS and Fury - Age Of Stomp
TTITLE4=DJ Supreme and U.F.O - Forever Autmn
TTITLE5=Supreme, Stompy and U.F.O - Beside Me
TTITLE6=DJ Hixxy - Thumper
TTITLE7=Stompy - I Believe
TTITLE8=Supreme and U.F.O - Paradise
TTITLE9=DJ Lee Impact - A Touch Of Darkness
TTITLE10=RSR - Fire This Time
TTITLE11=RSR - Sunshine
TTITLE12=DJ Slam - Influence
TTITLE13=Sunset Regime - Tribal Chant
TTITLE14=Sy and Eruption - 12" Of Love
TTITLE15=Ramos, Supreme and U.F.O - Terminator
TTITLE16=DJ Hyde and U.F.O - Organ Power
TTITLE17=Trancemasters - Acid Sunshine
EXTD=
EXTT0=
EXTT1=
EXTT2=
EXTT3=
EXTT4=
EXTT5=
EXTT6=
EXTT7=
EXTT8=
EXTT9=
EXTT10=
EXTT11=
EXTT12=
EXTT13=
EXTT14=
EXTT15=
EXTT16=
EXTT17=
PLAYORDER=
